<svg xmlns="http://www.w3.org/2000/svg" viewBox="0 0 1200 630" role="img" aria-label="Piirroskuva: juna asemalaiturilla">
  <rect width="1200" height="630" fill="#1f3a5f"/>
  <circle cx="150" cy="120" r="150" fill="#2c4d7a"/>
  <rect x="0" y="470" width="1200" height="160" fill="#16293f"/>
  <g stroke="#f5c518" stroke-width="8" stroke-dasharray="40 40">
    <line x1="0" y1="472" x2="1200" y2="472"/>
  </g>
  <rect x="200" y="180" width="820" height="270" rx="40" fill="#e3554f"/>
  <rect x="200" y="360" width="820" height="90" fill="#c8463f"/>
  <g fill="#101c2b">
    <rect x="250" y="230" width="130" height="110" rx="16"/>
    <rect x="420" y="230" width="130" height="110" rx="16"/>
    <rect x="590" y="230" width="130" height="110" rx="16"/>
    <rect x="760" y="230" width="130" height="110" rx="16"/>
  </g>
  <path d="M1020 210 h70 a20 20 0 0 1 20 20 v180 a20 20 0 0 1 -20 20 h-70 z" fill="#f5c518"/>
  <circle cx="1058" cy="300" r="30" fill="#101c2b"/>
  <circle cx="300" cy="470" r="40" fill="#101c2b"/>
  <circle cx="500" cy="470" r="40" fill="#101c2b"/>
  <circle cx="760" cy="470" r="40" fill="#101c2b"/>
  <circle cx="960" cy="470" r="40" fill="#101c2b"/>
</svg>
