<svg xmlns="http://www.w3.org/2000/svg" viewBox="0 0 1200 630" role="img" aria-label="Piirroskuva: pokaali korokkeella">
  <rect width="1200" height="630" fill="#5f1f2e"/>
  <circle cx="140" cy="130" r="160" fill="#732a3c"/>
  <circle cx="1080" cy="560" r="190" fill="#4a1622"/>
  <g fill="#8a3346">
    <rect x="250" y="470" width="220" height="120" rx="8"/>
    <rect x="730" y="500" width="220" height="90" rx="8"/>
  </g>
  <rect x="470" y="420" width="260" height="170" rx="8" fill="#a03d53"/>
  <text x="600" y="530" font-family="system-ui, sans-serif" font-size="72" font-weight="800" text-anchor="middle" fill="#faf8f5">1</text>
  <text x="360" y="560" font-family="system-ui, sans-serif" font-size="56" font-weight="800" text-anchor="middle" fill="#faf8f5">2</text>
  <text x="840" y="570" font-family="system-ui, sans-serif" font-size="56" font-weight="800" text-anchor="middle" fill="#faf8f5">3</text>
  <path d="M520 160 h160 v70 a80 80 0 0 1 -160 0 z" fill="#f5c518"/>
  <path d="M520 175 h-45 a55 55 0 0 0 55 68 M680 175 h45 a55 55 0 0 1 -55 68" fill="none" stroke="#f5c518" stroke-width="18" stroke-linecap="round"/>
  <rect x="580" y="300" width="40" height="50" fill="#e0b010"/>
  <rect x="545" y="350" width="110" height="30" rx="6" fill="#e0b010"/>
  <circle cx="600" cy="205" r="26" fill="#faf8f5" opacity="0.35"/>
</svg>
